Coordinates
version=1
nRows=13
nColumns=40
inDegrees=yes

Units are S.I. units (second, meters, Newtons, ...)
Angles are in degrees.

endheader
time	pelvis_tilt	pelvis_list	pelvis_rotation	pelvis_tx	pelvis_ty	pelvis_tz	hip_flexion_r	hip_adduction_r	hip_rotation_r	knee_angle_r	knee_angle_r_beta	ankle_angle_r	subtalar_angle_r	mtp_angle_r	hip_flexion_l	hip_adduction_l	hip_rotation_l	knee_angle_l	knee_angle_l_beta	ankle_angle_l	subtalar_angle_l	mtp_angle_l	lumbar_extension	lumbar_bending	lumbar_rotation	arm_flex_r	arm_add_r	arm_rot_r	elbow_flex_r	pro_sup_r	wrist_flex_r	wrist_dev_r	arm_flex_l	arm_add_l	arm_rot_l	elbow_flex_l	pro_sup_l	wrist_flex_l	wrist_dev_l
     43.24628571	     -3.71437080	     -6.82983707	      2.97269784	      1.07296765	      0.93388080	      0.46300661	      6.35800926	      6.25195114	    -19.75589895	      9.49244801	      9.49244801	      9.65347380	     10.49906331	     -3.82773869	     36.48950872	    -13.83375783	     -0.63255174	     48.30111092	     48.30111092	      7.42318377	    -16.73715532	     12.10618710	    -11.25512356	      8.61761300	      5.34455845	     29.79566065	    -15.56918589	     -7.66249826	     47.46210889	     45.72743162	      0.00000000	      0.00000000	     -3.82717914	     -6.06185449	      0.86989068	     33.63709193	     46.33630432	      0.00000000	      0.00000000
     43.25757143	     -3.85037014	     -6.86627563	      2.87249174	      1.07188724	      0.93326523	      0.46283718	      5.83297024	      6.35798474	    -19.55487322	      9.29365232	      9.29365232	     10.17761305	     10.61618607	     -3.52863326	     36.58042329	    -13.57827813	     -0.85673228	     44.42952797	     44.42952797	      6.75914464	    -16.43066453	     11.08072099	    -11.29575912	      8.73338191	      5.64142525	     31.39049171	    -16.34281389	     -5.32815552	     50.97539153	     45.50330397	      0.00000000	      0.00000000	     -4.58422697	     -5.86931510	      2.08630259	     30.97287802	     46.08753891	      0.00000000	      0.00000000
     43.26885714	     -4.10404543	     -6.89967821	      2.77214176	      1.07074937	      0.93236539	      0.46260015	      5.48830919	      6.43697378	    -19.33383986	      9.17508912	      9.17508912	     10.58546005	     10.56626062	     -3.66213865	     36.79829337	    -13.34148251	     -1.12265404	     40.64088290	     40.64088290	      6.71892480	    -15.46048000	     11.57795867	    -11.13254110	      8.78541731	      5.96056427	     33.61840501	    -16.50754673	     -5.39449879	     52.24035502	     45.47319199	      0.00000000	      0.00000000	     -5.91101018	     -5.61976972	      2.23810685	     30.32530528	     46.04028314	      0.00000000	      0.00000000
     43.28014286	     -4.16398980	     -6.80344483	      2.69593955	      1.06987969	      0.93174102	      0.46226038	      4.86500270	      6.40444713	    -19.02833638	      8.98281214	      8.98281214	     11.04618437	     10.47358022	     -3.72208303	     36.55161825	    -12.92246600	     -1.37927504	     36.60993473	     36.60993473	      6.66137726	    -14.48301691	     11.93872961	    -11.19833423	      8.67524564	      5.52757840	     35.82623651	    -15.86200990	     -5.13470711	     54.36920347	     45.39781740	      0.00000000	      0.00000000	     -7.40709321	     -5.60288782	      2.52315097	     29.24931161	     45.96804832	      0.00000000	      0.00000000
     43.29142857	     -4.33160251	     -6.80382135	      2.68669488	      1.06895683	      0.93072671	      0.46175099	      4.38599099	      6.44734307	    -18.77833949	      8.82014813	      8.82014813	     11.51643938	     10.36411844	     -3.77863528	     36.47471961	    -12.56149068	     -1.58082679	     32.74935705	     32.74935705	      6.61240703	    -13.17417931	     12.13493507	    -11.12965022	      8.68510577	      5.26468333	     37.84185473	    -15.47724276	     -4.78779397	     56.55787795	     45.31733928	      0.00000000	      0.00000000	     -8.72968177	     -5.46392482	      2.82413275	     28.33265300	     45.89540504	      0.00000000	      0.00000000
     43.30271429	     -4.49272000	     -6.92302986	      2.69496973	      1.06818275	      0.92953009	      0.46113203	      3.88576752	      6.62282418	    -18.52446070	      8.65258550	      8.65258550	     12.08668248	     10.15802451	     -3.45579922	     36.32596969	    -12.31722681	     -1.81265564	     28.92186937	     28.92186937	      5.97825104	    -11.75410063	     10.65068925	    -11.14128177	      8.83705730	      5.57535929	     38.64933311	    -16.33006828	     -3.15330665	     61.71548879	     45.09714912	      0.00000000	      0.00000000	     -9.58992252	     -5.40605171	      4.20459345	     27.12361981	     45.63402992	      0.00000000	      0.00000000
     43.31400000	     -4.66453290	     -6.88148970	      2.71957883	      1.06750387	      0.92832907	      0.46035454	      3.42488162	      6.58879181	    -18.31077754	      8.56699527	      8.56699527	     12.60785655	     10.02644732	     -3.60311704	     36.13682436	    -11.90459540	     -2.20395958	     25.37370402	     25.37370402	      6.03899341	     -9.96902037	     11.05577326	    -11.02312625	      8.76605521	      5.33030790	     40.54688010	    -15.88484057	     -3.16547374	     63.40810890	     45.05197403	      0.00000000	      0.00000000	    -10.80914431	     -5.31874771	      4.47117310	     26.51450822	     45.56726856	      0.00000000	      0.00000000
     43.32528571	     -4.80522905	     -6.87430438	      2.78251655	      1.06699682	      0.92701708	      0.45941395	      2.91010168	      6.59201876	    -18.08656571	      8.46202677	      8.46202677	     13.13121482	      9.83452716	     -3.69899143	     35.95488744	    -11.52214920	     -2.68721160	     22.23151912	     22.23151912	      6.15569764	     -8.05221332	     11.35526494	    -10.93765419	      8.75218110	      4.90141019	     42.26908214	    -15.31000997	     -3.00013765	     65.70740003	     44.97988936	      0.00000000	      0.00000000	    -12.05185748	     -5.21925881	      4.79195676	     25.93202123	     45.48972425	      0.00000000	      0.00000000
     43.33657143	     -4.92934809	     -6.94388080	      2.87831489	      1.06665990	      0.92557415	      0.45837837	      2.35882205	      6.69299644	    -17.77887466	      8.33087121	      8.33087121	     13.70537890	      9.44843511	     -3.56532737	     35.86557962	    -11.24693847	     -3.39372989	     19.66025009	     19.66025009	      6.29518845	     -5.93978929	     11.38327958	    -10.91984584	      8.82993539	      5.14809656	     42.91175719	    -15.83174772	     -2.56968858	     70.37022826	     44.84345589	      0.00000000	      0.00000000	    -13.01548900	     -5.31724041	      6.06096810	     25.77666794	     45.24602527	      0.00000000	      0.00000000
     43.34785714	     -5.07238090	     -6.91725610	      2.99233376	      1.06647521	      0.92411060	      0.45715152	      1.87684087	      6.63798500	    -17.61034131	      8.33421725	      8.33421725	     14.25954174	      9.22950314	     -3.70445484	     35.71884570	    -10.79857626	     -3.99322952	     17.41934321	     17.41934321	      6.33942146	     -4.46751031	     11.69069325	    -10.72917531	      8.76457717	      4.70036460	     44.42873558	    -15.18136468	     -2.50266592	     72.25451155	     44.79094422	      0.00000000	      0.00000000	    -14.08493327	     -5.25205340	      6.35106461	     25.29186008	     45.17849565	      0.00000000	      0.00000000
     43.35914286	     -5.18673191	     -6.91542487	      3.14091307	      1.06652982	      0.92252333	      0.45577440	      1.34278324	      6.61544894	    -17.41875661	      8.32544738	      8.32544738	     14.83870401	      8.90965559	     -3.73492750	     35.69177911	    -10.41080982	     -4.76631019	     15.94293076	     15.94293076	      6.48033512	     -3.11509592	     11.76334561	    -10.60177300	      8.76100730	      4.22997528	     45.58981623	    -14.67891137	     -2.30399455	     75.18348746	     44.70430920	      0.00000000	      0.00000000	    -15.14530277	     -5.19133702	      6.76371220	     25.00979772	     45.08864085	      0.00000000	      0.00000000
     43.37042857	     -5.28860362	     -6.94416748	      3.28402344	      1.06677540	      0.92090776	      0.45428201	      0.82349122	      6.61438008	    -17.16597886	      8.39048563	      8.39048563	     15.47879124	      8.50273671	     -3.55265871	     35.66424230	    -10.06609016	     -5.52407052	     14.98299556	     14.98299556	      6.45208664	     -2.19398039	     11.51765040	    -10.48035960	      8.76316789	      4.43093103	     45.98868081	    -15.02864217	     -2.22821005	     79.28041425	     44.60254851	      0.00000000	      0.00000000	    -15.94424055	     -5.34137387	      7.52792444	     25.12406357	     44.94596503	      0.00000000	      0.00000000
     43.38171429	     -5.37478578	     -6.86493436	      3.42174881	      1.06720661	      0.91931681	      0.45263210	      0.31052836	      6.46127566	    -17.02053838	      8.54985654	      8.54985654	     16.11892696	      8.21232350	     -3.57352935	     35.54295704	     -9.59945790	     -6.14515030	     14.40410976	     14.40410976	      6.26332700	     -2.09359646	     11.38319693	    -10.29075315	      8.62027781	      3.99216564	     46.91966409	    -14.49312593	     -2.16072126	     81.51462918	     44.54464486	      0.00000000	      0.00000000	    -16.80839815	     -5.33049825	      7.85081467	     24.80811632	     44.88029757	      0.00000000	      0.00000000
